<svg width="20" height="20" viewBox="0 0 20 20" fill="none" xmlns="http://www.w3.org/2000/svg">
<g transform="translate(2.2, 0.85)">
<path d="M11.3 0C12.6058 0 13.7292 0.297862 14.5157 1.08428C15.3021 1.8707 15.6 2.99416 15.6 4.3V16.6944C15.6 17.2423 15.3446 17.743 14.9101 18.0391C14.466 18.3417 13.8876 18.3919 13.3632 18.1327C13.3514 18.1269 13.3398 18.1207 13.3283 18.1144L7.8 15.0343L2.27168 18.1144C2.26022 18.1207 2.24858 18.1269 2.23682 18.1327C1.71236 18.3919 1.13398 18.3417 0.689893 18.0391C0.255432 17.743 1.48227e-05 17.2423 0 16.6944V4.3C0 2.99416 0.29789 1.8707 1.08433 1.08428C1.87076 0.297862 2.99422 0 4.3 0H11.3Z" fill="white"/>
</g>
</svg>
