<svg width="24" height="24" viewBox="0 0 24 24" fill="none" xmlns="http://www.w3.org/2000/svg">
<mask id="mask0_scrap_filled" style="mask-type:alpha" maskUnits="userSpaceOnUse" x="4" y="3" width="16" height="19">
<path d="M15.5 3C16.8058 3 17.9292 3.29786 18.7157 4.08428C19.5021 4.8707 19.8 5.99416 19.8 7.3V19.6944C19.8 20.2423 19.5446 20.743 19.1101 21.0391C18.666 21.3417 18.0876 21.3919 17.5632 21.1327C17.5514 21.1269 17.5398 21.1207 17.5283 21.1144L12 18.0343L6.47168 21.1144C6.46022 21.1207 6.44857 21.1269 6.43681 21.1327C5.91236 21.3919 5.33398 21.3417 4.88989 21.0391C4.45543 20.743 4.20001 20.2423 4.2 19.6944V7.3C4.2 5.99416 4.49789 4.8707 5.28432 4.08428C6.07076 3.29786 7.19422 3 8.5 3H15.5Z" fill="black"/>
</mask>
<g mask="url(#mask0_scrap_filled)">
<rect width="24" height="24" fill="#00a1ff"/>
</g>
</svg>
