<svg preserveAspectRatio="none" width="100%" height="100%" overflow="visible" style="display: block;" viewBox="0 0 42.715 40.9386" fill="none" xmlns="http://www.w3.org/2000/svg">
<g id="Vector">
<path d="M19.5308 2.38573C20.2355 0.804756 22.4795 0.804756 23.1842 2.38573L27.5181 12.1083C27.8087 12.7604 28.4249 13.208 29.1349 13.283L39.7208 14.4003C41.4422 14.5819 42.1356 16.7161 40.8498 17.8749L32.9423 25.0011C32.412 25.479 32.1766 26.2034 32.3248 26.9018L34.5334 37.3148C34.8925 39.0081 33.0771 40.3271 31.5777 39.4623L22.3567 34.144C21.7383 33.7873 20.9767 33.7873 20.3583 34.144L11.1373 39.4623C9.63792 40.3271 7.82246 39.0081 8.18161 37.3148L10.3902 26.9018C10.5384 26.2034 10.303 25.479 9.77267 25.0011L1.86519 17.8749C0.579366 16.7161 1.27281 14.5819 2.99418 14.4003L13.5801 13.283C14.2901 13.208 14.9063 12.7604 15.1969 12.1083L19.5308 2.38573Z" fill="var(--fill-0, #0AA5FF)"/>
<path fill-rule="evenodd" clip-rule="evenodd" d="M18.4347 1.89717C19.5623 -0.63239 23.1527 -0.63239 24.2803 1.89717L28.6141 11.6197C28.7304 11.8806 28.9769 12.0596 29.2608 12.0896L39.8468 13.2069C42.601 13.4976 43.7105 16.9123 41.6531 18.7663L33.7457 25.8925C33.5335 26.0837 33.4394 26.3734 33.4986 26.6528L35.7073 37.0659C36.2819 39.7751 33.3772 41.8855 30.9781 40.5018L21.7572 35.1834C21.5098 35.0408 21.2052 35.0408 20.9578 35.1834L11.7369 40.5018C9.33783 41.8855 6.43309 39.7751 7.00772 37.0659L9.21635 26.6528C9.2756 26.3734 9.18146 26.0837 8.96933 25.8925L1.06185 18.7663C-0.995475 16.9123 0.114036 13.4976 2.86822 13.2069L13.4542 12.0896C13.7381 12.0596 13.9846 11.8806 14.1009 11.6197L18.4347 1.89717ZM22.0882 2.87429C21.8063 2.2419 20.9087 2.2419 20.6268 2.87429L16.293 12.5969C15.8279 13.6402 14.842 14.3565 13.7061 14.4764L3.12013 15.5936C2.43158 15.6663 2.15421 16.52 2.66854 16.9835L10.576 24.1097C11.4245 24.8743 11.8011 26.0334 11.5641 27.1507L9.35549 37.5638C9.21183 38.2411 9.93802 38.7687 10.5378 38.4228L19.7587 33.1045C20.7482 32.5338 21.9668 32.5338 22.9563 33.1045L32.1772 38.4228C32.777 38.7687 33.5032 38.2411 33.3595 37.5638L31.1509 27.1507C30.9139 26.0333 31.2905 24.8743 32.139 24.1097L40.0465 16.9835C40.5608 16.52 40.2834 15.6663 39.5949 15.5936L29.0089 14.4764C27.873 14.3565 26.8871 13.6402 26.422 12.5969L22.0882 2.87429Z" fill="var(--fill-0, #0AA5FF)"/>
</g>
</svg>
