<svg width="24" height="24" viewBox="0 0 24 24" fill="none" xmlns="http://www.w3.org/2000/svg">
<g id="Section 6">
<path d="M-96 -7C-96 -8.10457 -95.1046 -9 -94 -9H110C111.105 -9 112 -8.10457 112 -7V54C112 55.1046 111.105 56 110 56H-94C-95.1046 56 -96 55.1046 -96 54V-7Z" fill="white"/>
<path d="M-94 -9V-8H110V-9V-10H-94V-9ZM112 -7H111V54H112H113V-7H112ZM110 56V55H-94V56V57H110V56ZM-96 54H-95V-7H-96H-97V54H-96ZM-94 56V55C-94.5523 55 -95 54.5523 -95 54H-96H-97C-97 55.6569 -95.6569 57 -94 57V56ZM112 54H111C111 54.5523 110.552 55 110 55V56V57C111.657 57 113 55.6569 113 54H112ZM110 -9V-8C110.552 -8 111 -7.55229 111 -7H112H113C113 -8.65685 111.657 -10 110 -10V-9ZM-94 -9V-10C-95.6569 -10 -97 -8.65685 -97 -7H-96H-95C-95 -7.55228 -94.5523 -8 -94 -8V-9Z" fill="black" fill-opacity="0.1"/>
<g id="Back Icon">
<g id="arrow_left_24">
<path id="-" fill-rule="evenodd" clip-rule="evenodd" d="M13.0731 2.86214C13.4033 3.23365 13.3698 3.80251 12.9983 4.13274L5.16757 11.0934H21.5004C21.9974 11.0934 22.4004 11.4963 22.4004 11.9934C22.4004 12.4905 21.9974 12.8934 21.5004 12.8934H5.16757L12.9983 19.8541C13.3698 20.1843 13.4033 20.7532 13.0731 21.1247C12.7428 21.4962 12.174 21.5296 11.8025 21.1994L2.20246 12.6661C2.01032 12.4953 1.90039 12.2505 1.90039 11.9934C1.90039 11.7363 2.01032 11.4915 2.20246 11.3207L11.8025 2.7874C12.174 2.45717 12.7428 2.49064 13.0731 2.86214Z" fill="#2F3438"/>
</g>
</g>
</g>
</svg>
