<svg width="24" height="24" viewBox="0 0 24 24" fill="none" xmlns="http://www.w3.org/2000/svg">
<path fill-rule="evenodd" clip-rule="evenodd" d="M13.0731 2.86214C13.4033 3.23365 13.3698 3.80251 12.9983 4.13274L5.16757 11.0934H21.5004C21.9974 11.0934 22.4004 11.4963 22.4004 11.9934C22.4004 12.4905 21.9974 12.8934 21.5004 12.8934H5.16757L12.9983 19.8541C13.3698 20.1843 13.4033 20.7532 13.0731 21.1247C12.7428 21.4962 12.174 21.5296 11.8025 21.1994L2.20246 12.6661C2.01032 12.4953 1.90039 12.2505 1.90039 11.9934C1.90039 11.7363 2.01032 11.4915 2.20246 11.3207L11.8025 2.7874C12.174 2.45717 12.7428 2.49064 13.0731 2.86214Z" fill="#141414"/>
</svg>
