<svg width="24" height="24" viewBox="0 0 24 24" fill="none" xmlns="http://www.w3.org/2000/svg">
<path d="M20.16 11.9999C20.6018 11.9999 20.96 12.3581 20.96 12.7999C20.96 15.6775 20.6101 17.7943 19.2652 19.1281C17.9223 20.4597 15.7988 20.7999 12.9237 20.7999H11.0362C8.16115 20.7999 6.03766 20.4597 4.69482 19.1281C3.34989 17.7943 3 15.6775 3 12.7999C3.00001 12.3581 3.35818 11.9999 3.8 11.9999C4.24182 11.9999 4.59999 12.3581 4.6 12.7999C4.6 15.6824 4.98827 17.1657 5.82144 17.9919C6.65672 18.8202 8.15138 19.1999 11.0362 19.1999H12.9237C15.8086 19.1999 17.3033 18.8202 18.1386 17.9919C18.9717 17.1657 19.36 15.6824 19.36 12.7999C19.36 12.3581 19.7182 11.9999 20.16 11.9999Z" fill="#141414"/>
<path d="M11.4291 2.91985C11.7425 2.62193 12.2381 2.62672 12.5457 2.93425L15.8457 6.23425C16.1581 6.54667 16.1581 7.05319 15.8457 7.3656C15.5332 7.67799 15.0267 7.67799 14.7143 7.3656L12.78 5.43127V12.6999C12.78 13.1417 12.4218 13.4999 11.98 13.4999C11.5382 13.4999 11.18 13.1417 11.18 12.6999V5.43127L9.24565 7.3656C8.93324 7.67799 8.42672 7.67799 8.11431 7.3656C7.8019 7.05319 7.80191 6.54667 8.11431 6.23425L11.4143 2.93425L11.4291 2.91985Z" fill="#141414"/>
</svg>
