<svg width="24" height="24" viewBox="0 0 24 24" fill="none" xmlns="http://www.w3.org/2000/svg">
<rect width="24" height="24" fill="#F5F5F5"/>
<g id="Section 6">
<path d="M-25 -7C-25 -8.10457 -24.1046 -9 -23 -9H181C182.105 -9 183 -8.10457 183 -7V54C183 55.1046 182.105 56 181 56H-23C-24.1046 56 -25 55.1046 -25 54V-7Z" fill="white"/>
<path d="M-23 -9V-8H181V-9V-10H-23V-9ZM183 -7H182V54H183H184V-7H183ZM181 56V55H-23V56V57H181V56ZM-25 54H-24V-7H-25H-26V54H-25ZM-23 56V55C-23.5523 55 -24 54.5523 -24 54H-25H-26C-26 55.6569 -24.6569 57 -23 57V56ZM183 54H182C182 54.5523 181.552 55 181 55V56V57C182.657 57 184 55.6569 184 54H183ZM181 -9V-8C181.552 -8 182 -7.55229 182 -7H183H184C184 -8.65685 182.657 -10 181 -10V-9ZM-23 -9V-10C-24.6569 -10 -26 -8.65685 -26 -7H-25H-24C-24 -7.55228 -23.5523 -8 -23 -8V-9Z" fill="black" fill-opacity="0.1"/>
<g id="[Icon] Arrow Up From Bracket">
<g id="Color">
<mask id="mask0_8007_2" style="mask-type:alpha" maskUnits="userSpaceOnUse" x="3" y="2" width="18" height="19">
<g id="Vector">
<path d="M20.16 11.9999C20.6018 11.9999 20.96 12.3581 20.96 12.7999C20.96 15.6775 20.6101 17.7943 19.2652 19.1281C17.9223 20.4597 15.7988 20.7999 12.9237 20.7999H11.0362C8.16115 20.7999 6.03766 20.4597 4.69482 19.1281C3.34989 17.7943 3 15.6775 3 12.7999C3.00001 12.3581 3.35818 11.9999 3.8 11.9999C4.24182 11.9999 4.59999 12.3581 4.6 12.7999C4.6 15.6824 4.98827 17.1657 5.82144 17.9919C6.65672 18.8202 8.15138 19.1999 11.0362 19.1999H12.9237C15.8086 19.1999 17.3033 18.8202 18.1386 17.9919C18.9717 17.1657 19.36 15.6824 19.36 12.7999C19.36 12.3581 19.7182 11.9999 20.16 11.9999Z" fill="black"/>
<path d="M11.4291 2.91985C11.7425 2.62193 12.2381 2.62672 12.5457 2.93425L15.8457 6.23425C16.1581 6.54667 16.1581 7.05319 15.8457 7.3656C15.5332 7.67799 15.0267 7.67799 14.7143 7.3656L12.78 5.43127V12.6999C12.78 13.1417 12.4218 13.4999 11.98 13.4999C11.5382 13.4999 11.18 13.1417 11.18 12.6999V5.43127L9.24565 7.3656C8.93324 7.67799 8.42672 7.67799 8.11431 7.3656C7.8019 7.05319 7.80191 6.54667 8.11431 6.23425L11.4143 2.93425L11.4291 2.91985Z" fill="black"/>
</g>
</mask>
<g mask="url(#mask0_8007_2)">
<g id="Color Set">
<g id="Color_2">
<rect id="Color_3" width="24" height="24" fill="#141414"/>
</g>
</g>
</g>
</g>
</g>
</g>
</svg>
