<svg width="24" height="24" viewBox="0 0 24 24" fill="none" xmlns="http://www.w3.org/2000/svg">
<path d="M8.0502 19.2999C8.79578 19.2999 9.4002 19.9044 9.4002 20.65C9.4002 21.3955 8.79578 22 8.0502 22C7.30461 22 6.7002 21.3955 6.7002 20.65C6.7002 19.9044 7.30461 19.2999 8.0502 19.2999Z" fill="#141414"/>
<path d="M15.5002 19.2999C16.2458 19.2999 16.8502 19.9044 16.8502 20.65C16.8502 21.3955 16.2458 22 15.5002 22C14.7546 22 14.1502 21.3955 14.1502 20.65C14.1502 19.9044 14.7546 19.2999 15.5002 19.2999Z" fill="#141414"/>
<path fill-rule="evenodd" clip-rule="evenodd" d="M4.50972 2.19995C5.29817 2.19995 5.9681 2.77465 6.0897 3.55278L6.52939 6.35806H20.1002C20.8182 6.35806 21.4002 6.9401 21.4002 7.65806V10.4407C21.4002 13.0614 21.1142 15.0119 19.8886 16.2366C18.6632 17.461 16.7128 17.7456 14.0951 17.7456H8.6624C7.52966 17.7456 6.5656 16.9208 6.39019 15.8018L5.06079 7.32095C5.05566 7.29615 5.0517 7.27094 5.04893 7.24536L4.50898 3.80054L4.50894 3.8002L4.50889 3.79995H2.0002C1.55837 3.79995 1.2002 3.44178 1.2002 2.99995C1.2002 2.55812 1.55837 2.19995 2.0002 2.19995H4.50972ZM7.97085 15.554C8.02424 15.8946 8.31766 16.1456 8.6624 16.1456H14.0951C16.7455 16.1456 18.0475 15.8144 18.7577 15.1048C19.4676 14.3953 19.8002 13.0935 19.8002 10.4407V7.95806H6.78022L7.97085 15.554Z" fill="#141414"/>
</svg>
