<svg width="14" height="14" viewBox="0 0 14 14" fill="none" xmlns="http://www.w3.org/2000/svg">
<path d="M7.92307 11.5646C8.09242 11.3703 8.3872 11.3501 8.58149 11.5194C8.77578 11.6888 8.79598 11.9835 8.62663 12.1778C8.26733 12.59 7.69049 12.8333 7.00013 12.8333C6.30978 12.8333 5.73293 12.59 5.37364 12.1778C5.2043 11.9835 5.22452 11.6888 5.41881 11.5194C5.6131 11.3501 5.90788 11.3703 6.07723 11.5646C6.22568 11.7349 6.52383 11.8999 7.00013 11.8999C7.47644 11.8999 7.77462 11.7349 7.92307 11.5646Z" fill="#141414"/>
<path fill-rule="evenodd" clip-rule="evenodd" d="M7.00013 1.60413C8.76938 1.60413 10.0182 1.80338 10.7685 2.63313C11.1441 3.04854 11.3568 3.58065 11.4788 4.21093C11.6 4.8378 11.6376 5.59593 11.6376 6.49393V9.88747H11.7543C12.012 9.88747 12.221 10.0964 12.221 10.3541C12.221 10.6119 12.012 10.8208 11.7543 10.8208H2.24596C1.98823 10.8208 1.7793 10.6119 1.7793 10.3541C1.7793 10.0964 1.98823 9.88747 2.24596 9.88747H2.36263V6.49393C2.36263 5.59593 2.40026 4.8378 2.52151 4.21093C2.64342 3.58065 2.85615 3.04854 3.23176 2.63313C3.98203 1.80338 5.23089 1.60413 7.00013 1.60413ZM7.00013 2.53746C5.20457 2.53746 4.36799 2.76812 3.92405 3.25911C3.70255 3.50407 3.54098 3.85507 3.43787 4.38818C3.33409 4.9247 3.29596 5.61029 3.29596 6.49393V9.88747H10.7043V6.49393C10.7043 5.61029 10.6662 4.9247 10.5624 4.38818C10.4593 3.85507 10.2977 3.50407 10.0762 3.25911C9.63228 2.76812 8.7957 2.53746 7.00013 2.53746Z" fill="#141414"/>
</svg>
