<svg width="24" height="24" viewBox="0 0 24 24" fill="none" xmlns="http://www.w3.org/2000/svg">
<rect width="24" height="24" fill="#F5F5F5"/>
<g id="Section 6">
<path d="M-63 -7C-63 -8.10457 -62.1046 -9 -61 -9H143C144.105 -9 145 -8.10457 145 -7V54C145 55.1046 144.105 56 143 56H-61C-62.1046 56 -63 55.1046 -63 54V-7Z" fill="white"/>
<path d="M-61 -9V-8H143V-9V-10H-61V-9ZM145 -7H144V54H145H146V-7H145ZM143 56V55H-61V56V57H143V56ZM-63 54H-62V-7H-63H-64V54H-63ZM-61 56V55C-61.5523 55 -62 54.5523 -62 54H-63H-64C-64 55.6569 -62.6569 57 -61 57V56ZM145 54H144C144 54.5523 143.552 55 143 55V56V57C144.657 57 146 55.6569 146 54H145ZM143 -9V-8C143.552 -8 144 -7.55229 144 -7H145H146C146 -8.65685 144.657 -10 143 -10V-9ZM-61 -9V-10C-62.6569 -10 -64 -8.65685 -64 -7H-63H-62C-62 -7.55228 -61.5523 -8 -61 -8V-9Z" fill="black" fill-opacity="0.1"/>
<g id="[Icon] Cart">
<g id="Color">
<mask id="mask0_8007_2" style="mask-type:alpha" maskUnits="userSpaceOnUse" x="1" y="2" width="21" height="20">
<g id="Vector">
<path d="M8.0502 19.2999C8.79578 19.2999 9.4002 19.9044 9.4002 20.65C9.4002 21.3955 8.79578 22 8.0502 22C7.30461 22 6.7002 21.3955 6.7002 20.65C6.7002 19.9044 7.30461 19.2999 8.0502 19.2999Z" fill="black"/>
<path d="M15.5002 19.2999C16.2458 19.2999 16.8502 19.9044 16.8502 20.65C16.8502 21.3955 16.2458 22 15.5002 22C14.7546 22 14.1502 21.3955 14.1502 20.65C14.1502 19.9044 14.7546 19.2999 15.5002 19.2999Z" fill="black"/>
<path fill-rule="evenodd" clip-rule="evenodd" d="M4.50972 2.19995C5.29817 2.19995 5.9681 2.77465 6.0897 3.55278L6.52939 6.35806H20.1002C20.8182 6.35806 21.4002 6.9401 21.4002 7.65806V10.4407C21.4002 13.0614 21.1142 15.0119 19.8886 16.2366C18.6632 17.461 16.7128 17.7456 14.0951 17.7456H8.6624C7.52966 17.7456 6.5656 16.9208 6.39019 15.8018L5.06079 7.32095C5.05566 7.29615 5.0517 7.27094 5.04893 7.24536L4.50898 3.80054L4.50894 3.8002L4.50889 3.79995H2.0002C1.55837 3.79995 1.2002 3.44178 1.2002 2.99995C1.2002 2.55812 1.55837 2.19995 2.0002 2.19995H4.50972ZM7.97085 15.554C8.02424 15.8946 8.31766 16.1456 8.6624 16.1456H14.0951C16.7455 16.1456 18.0475 15.8144 18.7577 15.1048C19.4676 14.3953 19.8002 13.0935 19.8002 10.4407V7.95806H6.78022L7.97085 15.554Z" fill="black"/>
</g>
</mask>
<g mask="url(#mask0_8007_2)">
<g id="Color Set">
<g id="Color_2">
<rect id="Color_3" width="24" height="24" fill="#141414"/>
</g>
</g>
</g>
</g>
</g>
</g>
</svg>
