<svg width="123" height="32" viewBox="0 0 123 32" fill="none" xmlns="http://www.w3.org/2000/svg">
<rect width="123" height="32" fill="#F5F5F5"/>
<g id="&#236;&#149;&#132;&#236;&#157;&#180;&#235;&#148;&#148;&#236;&#150;&#180; &#236;&#139;&#156;&#236;&#149;&#136;">
<path d="M-2916.61 -877.388C-2916.61 -878.492 -2915.72 -879.388 -2914.61 -879.388H688.388C689.492 -879.388 690.388 -878.492 690.388 -877.388V5935.61C690.388 5936.72 689.492 5937.61 688.388 5937.61H-2914.61C-2915.72 5937.61 -2916.61 5936.72 -2916.61 5935.61V-877.388Z" fill="black"/>
<path d="M-2914.61 -879.388V-878.388H688.388V-879.388V-880.388H-2914.61V-879.388ZM690.388 -877.388H689.388V5935.61H690.388H691.388V-877.388H690.388ZM688.388 5937.61V5936.61H-2914.61V5937.61V5938.61H688.388V5937.61ZM-2916.61 5935.61H-2915.61V-877.388H-2916.61H-2917.61V5935.61H-2916.61ZM-2914.61 5937.61V5936.61C-2915.16 5936.61 -2915.61 5936.16 -2915.61 5935.61H-2916.61H-2917.61C-2917.61 5937.27 -2916.27 5938.61 -2914.61 5938.61V5937.61ZM690.388 5935.61H689.388C689.388 5936.16 688.94 5936.61 688.388 5936.61V5937.61V5938.61C690.044 5938.61 691.388 5937.27 691.388 5935.61H690.388ZM688.388 -879.388V-878.388C688.94 -878.388 689.388 -877.94 689.388 -877.388H690.388H691.388C691.388 -879.044 690.044 -880.388 688.388 -880.388V-879.388ZM-2914.61 -879.388V-880.388C-2916.27 -880.388 -2917.61 -879.045 -2917.61 -877.388H-2916.61H-2915.61C-2915.61 -877.94 -2915.16 -878.388 -2914.61 -878.388V-879.388Z" fill="black" fill-opacity="0.1"/>
<g id="&#237;&#148;&#132;&#235;&#160;&#136;&#236;&#158;&#132;">
<rect width="375" height="812" transform="translate(-16 -686)" fill="white"/>
<g id="Container">
<g id="&#236;&#139;&#164;&#236;&#139;&#156;&#234;&#176;&#132;&#234;&#184;&#137;&#236;&#131;&#129;&#236;&#138;&#185;_&#235;&#170;&#168;&#235;&#147;&#136;" clip-path="url(#clip0_8007_2)">
<rect width="375" height="494" transform="translate(-16 -32)" fill="white"/>
<g id="Header" clip-path="url(#clip1_8007_2)">
<rect width="375" height="58" transform="translate(-16)" fill="white"/>
<g id="Header Content">
<g id="Frame 2147203911">
<g id="&#237;&#131;&#128;&#236;&#157;&#180;&#237;&#139;&#128;">
<g id="&#236;&#167;&#145;&#236;&#154;&#148;&#237;&#149;&#156;&#235;&#157;&#188;&#236;&#157;&#180;&#235;&#184;&#140;_&#235;&#161;&#156;&#234;&#179;&#160;_&#235;&#184;&#148;&#235;&#158;&#153;">
<g id="Vector">
<path d="M122.353 29.7822C122.353 30.7023 121.608 31.4482 120.689 31.4482H68.5488C67.6298 31.4482 66.8848 30.7023 66.8848 29.7822V9.51623C66.8848 8.52773 67.5372 7.65816 68.4854 7.3828L93.2284 0.197833C94.1368 -0.0659441 95.1013 -0.0659444 96.0097 0.197833L120.753 7.3828C121.701 7.65816 122.353 8.52773 122.353 9.51623V29.7822Z" fill="#EC0100"/>
<path d="M113.201 15.1157H107.149V17.0816H113.201V19.5473H107.149V21.6799H113.201V24.2289H103.908V12.5668H113.201V15.1157Z" fill="white"/>
<path d="M96.7774 20.1682L99.9899 12.5668H103.231L98.27 24.2289H95.0456L90.1017 12.5668H93.6402L96.7774 20.1682Z" fill="white"/>
<path d="M86.1294 24.2289V12.5668H89.4034V24.2289H86.1294Z" fill="white"/>
<path d="M76.0371 24.2289V12.5668H79.3111V21.6132H84.8339V24.2289H76.0371Z" fill="white"/>
</g>
<g id="Vector_2">
<path d="M10.3086 21.0047L16.4438 21.0902C18.301 15.1038 17.3284 13.6726 16.4557 13.0092C15.4094 12.2128 13.4666 11.8966 12.3608 12.6669L15.6733 8.1497H1.69075V10.1135H9.18618L0 23.4107L4.9272 23.5058C4.9272 23.5058 5.61206 22.4977 7.60719 19.5948C10.4108 15.5151 11.7758 14.4666 12.9553 14.7567C13.9422 14.9992 13.0243 17.8712 10.3086 21.0047Z" fill="#242424"/>
<path d="M23.0973 7.78838H18.4056V22.6025H23.0973V7.78838Z" fill="#242424"/>
<path d="M38.766 25.493H34.3195V29.2274H31.0455V25.493H26.6014V29.2274H24.18V31.0935H41.142V29.2274H38.766V25.493Z" fill="#242424"/>
<path d="M47.5288 24.2284H43.3074V31.4548H60.2695V29.5222H47.5288V24.2284Z" fill="#242424"/>
<path d="M30.5721 24.9426C34.1357 25.6409 39.6743 24.698 40.0396 17.0711C40.4355 8.57731 34.7932 6.79826 30.8667 7.60109C23.28 9.13549 23.6076 23.5864 30.5721 24.945V24.9402V24.9426ZM32.6178 9.65329C34.3006 9.64616 35.6653 12.5986 35.6818 16.254C35.6983 19.9095 34.3596 22.8762 32.6768 22.8857C30.994 22.8928 29.6293 19.9404 29.6128 16.2849C29.5963 12.6294 30.935 9.66279 32.6178 9.65091V9.65566V9.65329Z" fill="#242424"/>
<path d="M46.1011 22.6616C48.9829 23.118 53.4865 22.4868 53.782 17.3015C53.9616 14.2039 52.73 12.3006 51.0538 11.3952H54.6756V9.88762H49.8387V7.2464H44.6732L46.0136 9.88762H40.9616V11.3952H44.5053C40.3304 13.8786 41.0963 21.8192 46.094 22.6616H46.1011ZM47.8221 21.2609C46.4652 21.2609 45.3706 19.263 45.3706 16.7771C45.3706 14.2913 46.4628 12.2934 47.8221 12.2934C49.1815 12.2934 50.2737 14.2913 50.2737 16.7771C50.2737 19.263 49.1815 21.2609 47.8221 21.2609Z" fill="#242424"/>
<path d="M59.6107 15.0063H62.2544V12.9342H59.6107V7.78838H55.5778V22.6025H59.6107V15.0063Z" fill="#242424"/>
<path fill-rule="evenodd" clip-rule="evenodd" d="M11.7418 23.3274V26.8691C14.2605 24.8715 18.4308 25.3909 18.4308 25.3909V23.3274H23.0973V29.0711C23.0973 31.0382 20.2076 31.8161 16.6847 31.8161C13.1618 31.8161 11.711 29.9924 11.7087 29.9877V31.5811H7.03745V23.3251H11.7394L11.7418 23.3274ZM15.397 30.0511C17.3321 30.0511 18.4308 29.3062 18.4308 27.9407V26.432C17.6771 26.3427 13.0129 25.9784 12.6136 28.2181C12.4293 29.2521 13.9651 30.0511 15.397 30.0511Z" fill="#242424"/>
</g>
</g>
</g>
</g>
</g>
</g>
</g>
</g>
</g>
</g>
<defs>
<clipPath id="clip0_8007_2">
<rect width="375" height="494" fill="white" transform="translate(-16 -32)"/>
</clipPath>
<clipPath id="clip1_8007_2">
<rect width="375" height="58" fill="white" transform="translate(-16)"/>
</clipPath>
</defs>
</svg>
